<svg xmlns="http://www.w3.org/2000/svg" viewBox="0 0 198.19 138.76"><defs><style>.cls-1{fill:#006c4a;}</style></defs><g id="Ebene_2" data-name="Ebene 2"><g id="Ebene_7" data-name="Ebene 7"><path class="cls-1" d="M194.1,21.71A24.82,24.82,0,0,0,176.64,4.24C161.13,0,99.09,0,99.09,0s-62,0-77.54,4.08A25.35,25.35,0,0,0,4.08,21.71C0,37.22,0,69.38,0,69.38s0,32.33,4.08,47.67a24.85,24.85,0,0,0,17.47,17.47c15.67,4.24,77.54,4.24,77.54,4.24s62,0,77.55-4.08a24.83,24.83,0,0,0,17.47-17.47c4.08-15.5,4.08-47.66,4.08-47.66S198.35,37.22,194.1,21.71ZM79.34,99.09V39.67l51.59,29.71Z"/></g></g></svg>